<?xml version="1.0" encoding="UTF-8"?>
<svg id="Layer_1" data-name="Layer 1" xmlns="http://www.w3.org/2000/svg" viewBox="0 0 384 395.53">
  <defs>
    <style>
      .cls-1 {
        fill: #ec2564;
      }

      .cls-1, .cls-2, .cls-3, .cls-4, .cls-5, .cls-6, .cls-7, .cls-8, .cls-9, .cls-10, .cls-11, .cls-12, .cls-13, .cls-14, .cls-15, .cls-16, .cls-17, .cls-18, .cls-19, .cls-20, .cls-21, .cls-22, .cls-23, .cls-24 {
        stroke-width: 0px;
      }

      .cls-2 {
        fill: #ee3254;
      }

      .cls-3 {
        fill: #ef374e;
      }

      .cls-4 {
        fill: #ef4638;
      }

      .cls-5 {
        fill: #ef453a;
      }

      .cls-6 {
        fill: #ef3f44;
      }

      .cls-7 {
        fill: #f26a23;
      }

      .cls-8 {
        fill: #f15b25;
      }

      .cls-9 {
        fill: #f0532b;
      }

      .cls-10 {
        fill: #eb226a;
      }

      .cls-11 {
        fill: #eb1f79;
      }

      .cls-12 {
        fill: #f04f2e;
      }

      .cls-13 {
        fill: #f04c31;
      }

      .cls-14 {
        fill: #eb1a73;
      }

      .cls-15 {
        fill: #ef3b47;
      }

      .cls-16 {
        fill: #f04934;
      }

      .cls-17 {
        fill: #f26323;
      }

      .cls-18 {
        fill: #ed2d59;
      }

      .cls-19 {
        fill: #ed285f;
      }

      .cls-20 {
        fill: #eb1e6f;
      }

      .cls-21 {
        fill: #fffffe;
      }

      .cls-22 {
        fill: #ef413f;
      }

      .cls-23 {
        fill: #ef4040;
      }

      .cls-24 {
        fill: #f15827;
      }
    </style>
  </defs>
  <path class="cls-21" d="m0,11.16c128,0,256,0,384,0,0,128,0,256,0,384-128,0-256,0-384,0,0-128,0-256,0-384Zm189.38,16.45c-7.54.8-12.54,6.39-12.86,14.37-.37,9.3,4.14,15.16,12.87,16.73,5.74.32,11.47.63,17.21.95l19.46,3.11c8.23,2.76,16.47,5.52,24.7,8.28,9.73,5.75,19.45,11.5,29.18,17.25,13.18,10.45,24.34,22.76,33.65,36.75.27.56.5,1.14.81,1.67,24.4,40.62,28.07,83.24,12.18,127.69-5.21,14.56-13.36,27.48-22.69,39.7-11.03,12.92-23.76,23.85-38.22,32.77-8.72,4.01-17.45,8.03-26.17,12.04-6.47,1.75-12.95,3.5-19.42,5.26l-18.72,2.29c-6.49-.05-12.97-.1-19.46-.14-6.17-.87-12.35-1.73-18.52-2.6-6.14-1.66-12.29-3.32-18.43-4.97-6.86-2.99-13.72-5.98-20.58-8.97-1.99-1.19-3.98-2.38-5.97-3.56-3.75-2.23-7.5-4.46-11.25-6.7-1-1.03-1.94-2.13-3.02-3.08-4.7-4.11-9.44-8.17-14.17-12.26-5.44-6.54-10.88-13.09-16.32-19.63-4.79-8.87-9.58-17.74-14.36-26.61-7.03-18.48-10.61-37.58-10.88-57.39-.04-3.05-2.72-6.07-4.17-9.1-4.09-4.63-9.39-4.98-15-4.23-8.08,1.76-12.58,7.05-12.48,15.61.08,7.19.53,14.41,1.37,21.55,1.63,13.95,4.7,27.6,10.1,40.64,4.99,10.13,9.98,20.27,14.97,30.4,4.55,6.35,9.11,12.7,13.66,19.05,4.89,5.24,9.78,10.48,14.66,15.73,5.87,4.88,11.73,9.77,17.6,14.65,5.49,3.52,10.99,7.04,16.48,10.55,5.81,2.88,11.62,5.76,17.43,8.64,6.66,2.37,13.32,4.75,19.97,7.12,6.49,1.49,12.98,2.98,19.46,4.46,6.49.75,12.97,1.5,19.46,2.25,6.49.02,12.97.05,19.46.07,6.27-.59,12.53-1.19,18.8-1.78,6.71-1.48,13.42-2.96,20.13-4.44,9.03-3.4,18.06-6.79,27.09-10.19,13.97-6.17,26.63-14.4,38.15-24.4,5.43-5.12,11.16-9.97,16.24-15.43,10.99-11.82,20.35-24.84,27.2-39.55.56-.95,1.21-1.86,1.68-2.85,17.58-37.38,21.87-76.25,12.79-116.53-3.1-13.74-7.59-27.02-14.46-39.4-6.19-13.41-14.64-25.32-24.33-36.37-2.91-3.32-6.3-6.23-9.47-9.33-2.04-2.15-3.81-4.66-6.16-6.38-9.57-7.03-19.31-13.82-28.99-20.7-9.51-4.39-19.01-8.77-28.52-13.16-8.23-2.25-16.47-4.51-24.7-6.76-6.74-.95-13.47-1.9-20.21-2.85-5.74-.08-11.48-.15-17.22-.23Z"/>
  <path class="cls-17" d="m315.17,77.68c3.17,3.1,6.56,6.01,9.47,9.33,9.69,11.05,18.14,22.97,24.33,36.37-.55,1.43-1.58,2.86-1.58,4.29-.09,38.98-.07,77.97-.07,116.95,0,11.33-.05,22.67.07,34,.01,1.19,1.02,2.36,1.57,3.54-6.85,14.71-16.2,27.73-27.2,39.55-5.08,5.46-10.8,10.31-16.24,15.43-.29-2.31-.82-4.62-.84-6.93-.09-10.76-.01-21.53-.07-32.29,0-1.28-.48-2.56-.73-3.84,9.33-12.23,17.48-25.14,22.69-39.7,15.89-44.45,12.22-87.06-12.18-127.69-.32-.53-.54-1.11-.81-1.67.27-1.56.76-3.13.76-4.69.06-12.66,0-25.31.07-37.97,0-1.57.49-3.13.75-4.7Z"/>
  <path class="cls-7" d="m348.97,282.17c-.55-1.18-1.56-2.36-1.57-3.54-.12-11.33-.07-22.67-.07-34,0-38.98-.02-77.97.07-116.95,0-1.43,1.03-2.86,1.58-4.29,6.87,12.38,11.36,25.66,14.46,39.4,9.08,40.28,4.79,79.15-12.79,116.53-.47.99-1.11,1.9-1.68,2.85Z"/>
  <path class="cls-24" d="m303.89,294.1c.26,1.28.73,2.56.73,3.84.06,10.76-.02,21.53.07,32.29.02,2.31.54,4.62.84,6.93-11.52,10-24.18,18.23-38.15,24.4-.3-1.39-.82-2.77-.86-4.17-.34-10.17-.58-20.34-.85-30.51,14.46-8.92,27.19-19.86,38.22-32.77Z"/>
  <path class="cls-8" d="m315.17,77.68c-.26,1.56-.74,3.13-.75,4.7-.06,12.66,0,25.31-.07,37.97,0,1.56-.5,3.13-.76,4.69-9.31-13.99-20.47-26.3-33.65-36.75.03-12.56.06-25.13.09-37.69,9.68,6.88,19.42,13.67,28.99,20.7,2.35,1.73,4.12,4.23,6.16,6.38Z"/>
  <path class="cls-14" d="m29.2,187.23c5.61-.74,10.91-.4,15,4.23-.01,32.22,0,64.43-.08,96.65,0,2.44-.63,4.88-.96,7.32-4.99-10.13-9.98-20.27-14.97-30.4.33-1.5.96-3,.96-4.5.06-24.43.05-48.87.05-73.3Z"/>
  <path class="cls-20" d="m43.16,295.43c.34-2.44.96-4.88.96-7.32.08-32.22.06-64.43.08-96.65,1.46,3.03,4.13,6.05,4.17,9.1.26,19.81,3.85,38.9,10.88,57.39-.54,1.56-1.53,3.12-1.54,4.68-.12,15.59-.05,31.17-.11,46.76,0,1.7-.51,3.39-.79,5.08-4.55-6.35-9.11-12.7-13.66-19.05Z"/>
  <path class="cls-9" d="m280.03,50.6c-.03,12.56-.06,25.13-.09,37.69-9.73-5.75-19.45-11.5-29.18-17.25,0-8.27-.06-16.55.04-24.82.03-2.93.46-5.85.71-8.78,9.51,4.39,19.01,8.77,28.52,13.16Z"/>
  <path class="cls-12" d="m265.67,326.87c.27,10.17.51,20.34.85,30.51.05,1.4.56,2.78.86,4.17-9.03,3.4-18.06,6.79-27.09,10.19-.25-3.05-.67-6.09-.72-9.15-.11-7.89-.06-15.79-.07-23.69,8.72-4.01,17.45-8.03,26.17-12.04Z"/>
  <path class="cls-13" d="m251.51,37.44c-.25,2.93-.68,5.85-.71,8.78-.1,8.27-.04,16.55-.04,24.82-8.23-2.76-16.47-5.52-24.7-8.28.25-10.69.5-21.39.75-32.08,8.23,2.25,16.47,4.51,24.7,6.76Z"/>
  <path class="cls-10" d="m56.82,314.48c.27-1.69.78-3.39.79-5.08.06-15.59,0-31.17.11-46.76.01-1.57,1-3.12,1.54-4.68,4.79,8.87,9.58,17.74,14.36,26.61-.33,2.31-.94,4.63-.95,6.94-.1,11.56,0,23.11-.09,34.67-.01,1.35-.7,2.69-1.08,4.04-4.89-5.24-9.78-10.48-14.66-15.73Z"/>
  <path class="cls-1" d="m71.48,330.2c.38-1.35,1.07-2.69,1.08-4.04.09-11.56,0-23.11.09-34.67.02-2.32.62-4.63.95-6.94,5.44,6.54,10.88,13.08,16.32,19.63-.28,13.56-.57,27.11-.85,40.67-5.87-4.88-11.73-9.77-17.6-14.65Z"/>
  <path class="cls-11" d="m29.2,187.23c0,24.43.01,48.87-.05,73.3,0,1.5-.63,3-.96,4.5-5.4-13.04-8.47-26.69-10.1-40.64-.84-7.14-1.28-14.36-1.37-21.55-.1-8.56,4.4-13.84,12.48-15.61Z"/>
  <path class="cls-19" d="m89.08,344.85c.28-13.56.57-27.11.85-40.67,4.73,4.08,9.47,8.14,14.17,12.26,1.08.94,2.02,2.05,3.02,3.08-.28,1.28-.78,2.56-.79,3.84-.07,7.85.03,15.71-.07,23.56-.03,2.83-.45,5.66-.7,8.5-5.49-3.52-10.99-7.04-16.48-10.55Z"/>
  <path class="cls-18" d="m105.56,355.41c.24-2.83.66-5.66.7-8.5.1-7.85,0-15.71.07-23.56.01-1.28.51-2.56.79-3.84,3.75,2.23,7.5,4.46,11.25,6.7,1.99,1.19,3.98,2.37,5.97,3.56-.03,10.09-.01,20.18-.14,30.26-.02,1.34-.78,2.68-1.2,4.02-5.81-2.88-11.62-5.76-17.43-8.64Z"/>
  <path class="cls-2" d="m123,364.05c.42-1.34,1.19-2.67,1.2-4.02.13-10.09.11-20.18.14-30.26,6.86,2.99,13.72,5.98,20.58,8.97-.65,1.75-1.83,3.5-1.87,5.26-.19,9.05-.09,18.12-.09,27.17-6.66-2.37-13.32-4.75-19.97-7.12Z"/>
  <path class="cls-3" d="m142.97,371.17c0-9.06-.1-18.12.09-27.17.04-1.77,1.22-3.51,1.87-5.26,6.15,1.66,12.29,3.32,18.43,4.97-.31,2.44-.85,4.88-.89,7.33-.11,8.2-.04,16.4-.04,24.6-6.49-1.49-12.98-2.98-19.46-4.46Z"/>
  <path class="cls-16" d="m239.49,338.91c.01,7.9-.04,15.79.07,23.69.04,3.05.47,6.1.72,9.15-6.71,1.48-13.42,2.96-20.13,4.44-.03-10.67-.06-21.34-.09-32.01,6.47-1.75,12.95-3.5,19.42-5.26Z"/>
  <path class="cls-4" d="m226.81,30.68c-.25,10.69-.5,21.39-.75,32.08-6.49-1.04-12.97-2.07-19.46-3.11,0-10.61,0-21.22,0-31.82,6.74.95,13.47,1.9,20.21,2.85Z"/>
  <path class="cls-15" d="m162.44,375.64c0-8.2-.07-16.4.04-24.6.03-2.45.58-4.88.89-7.33,6.17.87,12.35,1.73,18.52,2.6,0,10.53,0,21.05.01,31.58-6.49-.75-12.97-1.5-19.46-2.25Z"/>
  <path class="cls-23" d="m181.9,377.89c0-10.53,0-21.05-.01-31.58,6.49.05,12.97.1,19.46.14,0,10.5,0,21.01.01,31.51-6.49-.02-12.97-.05-19.46-.07Z"/>
  <path class="cls-5" d="m201.36,377.96c0-10.5,0-21.01-.01-31.51,6.24-.76,12.48-1.53,18.73-2.29.03,10.67.06,21.34.09,32.01-6.27.59-12.53,1.19-18.8,1.78Z"/>
  <path class="cls-22" d="m206.6,27.84c0,10.61,0,21.22,0,31.82-5.74-.32-11.47-.63-17.21-.95,0-10.37,0-20.73-.01-31.1,5.74.08,11.48.15,17.22.23Z"/>
  <path class="cls-6" d="m189.38,27.61c0,10.37,0,20.73.01,31.1-8.74-1.57-13.24-7.43-12.87-16.73.32-7.98,5.32-13.58,12.86-14.37Z"/>
</svg>